<svg xmlns="http://www.w3.org/2000/svg" viewBox="0 14.2 701.9 109.8" role="img" aria-label="Cornerpost Logic" xmlns:c2pa="http://c2pa.org/manifest"><metadata><c2pa:manifest>AAAWgmp1bWIAAAAeanVtZGMycGEAEQAQgAAAqgA4m3EDYzJwYQAAABZcanVtYgAAAEdqdW1kYzJtYQARABCAAACqADibcQN1cm46YzJwYTplNGMxMDZkMC01OTEzLTQ3MmQtYmExZi02NjU2MGQ2NTYwY2QAAAADl2p1bWIAAAApanVtZGMyYXMAEQAQgAAAqgA4m3EDYzJwYS5hc3NlcnRpb25zAAAAALxqdW1iAAAARGp1bWRjYm9yABEAEIAAAKoAOJtxE2MycGEuaW5ncmVkaWVudC52MwAAAAAYYzJzaD5/terfYQOEq3+KUey2q+MAAABwY2JvcqNpZGM6Zm9ybWF0bWltYWdlL3N2Zyt4bWxqaW5zdGFuY2VJRHgseG1wOmlpZDowYjFjYTY5Ni02MjkzLTRkODAtODk1Yy00MjhhZWE3YzlkN2NscmVsYXRpb25zaGlwaHBhcmVudE9mAAAB4mp1bWIAAABBanVtZGNib3IAEQAQgAAAqgA4m3ETYzJwYS5hY3Rpb25zLnYyAAAAABhjMnNomDuF+1pvepnXOcpHJmqXJAAAAZljYm9yomdhY3Rpb25zgqJmYWN0aW9ua2MycGEub3BlbmVkanBhcmFtZXRlcnOha2luZ3JlZGllbnRzgaJjdXJseC1zZWxmI2p1bWJmPWMycGEuYXNzZXJ0aW9ucy9jMnBhLmluZ3JlZGllbnQudjNkaGFzaFggH2lPISEmRNF3eeXJdFgxj27L4IbAf13Em1Jlj7n2C8ekZmFjdGlvbngdY29tLmFudGhyb3BpYy5jbGF1ZGUucHJvdmlkZWRqcGFyYW1ldGVyc6F4H2NvbS5hbnRocm9waWMub3JpZ2luLWNvbmZpZGVuY2VndW5rbm93bmtkZXNjcmlwdGlvbnhmQ2xhdWRlIHByb3ZpZGVkIHRoaXMgZmlsZSBhdCB0aGUgcmVxdWVzdCBvZiBhIHVzZXIgYW5kIG1heSBoYXZlIGNyZWF0ZWQgb3IgbW9kaWZpZWQgdGhlIGZpbGUgY29udGVudHMubXNvZnR3YXJlQWdlbnShZG5hbWVmQ2xhdWRlcmFsbEFjdGlvbnNJbmNsdWRlZPUAAADIanVtYgAAAEBqdW1kY2JvcgARABCAAACqADibcRNjMnBhLmhhc2guZGF0YQAAAAAYYzJzaMlNlo2kpjnsbJ+xX68tx5wAAACAY2JvcqVjYWxnZnNoYTI1NmNwYWRNAAAAAAAAAAAAAAAAAGRoYXNoWCB4iQweamzYiM2AYyyky/W98n6qAb1pbYHvxG7Dw56ksWRuYW1lbmp1bWJmIG1hbmlmZXN0amV4Y2x1c2lvbnOBomVzdGFydBitZmxlbmd0aBkeBAAAAj5qdW1iAAAAJ2p1bWRjMmNsABEAEIAAAKoAOJtxA2MycGEuY2xhaW0udjIAAAACD2Nib3KlY2FsZ2ZzaGEyNTZpc2lnbmF0dXJleE1zZWxmI2p1bWJmPS9jMnBhL3VybjpjMnBhOmU0YzEwNmQwLTU5MTMtNDcyZC1iYTFmLTY2NTYwZDY1NjBjZC9jMnBhLnNpZ25hdHVyZWppbnN0YW5jZUlEeCx4bXA6aWlkOjcyYjliMWExLWI0ZjEtNDAyZC1iNDYzLWUyZGFiNDhiNGE2MHJjcmVhdGVkX2Fzc2VydGlvbnODomN1cmx4LXNlbGYjanVtYmY9YzJwYS5hc3NlcnRpb25zL2MycGEuaW5ncmVkaWVudC52M2RoYXNoWCAfaU8hISZE0Xd55cl0WDGPbsvghsB/XcSbUmWPufYLx6JjdXJseCpzZWxmI2p1bWJmPWMycGEuYXNzZXJ0aW9ucy9jMnBhLmFjdGlvbnMudjJkaGFzaFggOLRFgZs0iwPWwr4qViNSyV2Sqr1RH1uqpTqABw5AGECiY3VybHgpc2VsZiNqdW1iZj1jMnBhLmFzc2VydGlvbnMvYzJwYS5oYXNoLmRhdGFkaGFzaFgg3Bh2VgDRGdZGDzmo4bev1+1YmEWWLZtfjCKivDWi71R0Y2xhaW1fZ2VuZXJhdG9yX2luZm+jZG5hbWVvQW50aHJvcGljIEZpbGVzZ3ZlcnNpb25lMS4wLjBrc3BlY1ZlcnNpb25lMi40LjAAABA4anVtYgAAAChqdW1kYzJjcwARABCAAACqADibcQNjMnBhLnNpZ25hdHVyZQAAABAIY2JvctKEWQISogEmGCFZAgowggIGMIIBjaADAgECAhRA5aAK7sI50L64g/oGQgU9Z1UTADAKBggqhkjOPQQDAzBJMRcwFQYDVQQKEw5BbnRocm9waWMsIFBCQzEuMCwGA1UEAxMlQW50aHJvcGljIENvbnRlbnQgQ3JlZGVudGlhbHMgUm9vdCBDQTAeFw0yNjA4MDcxODQzNTZaFw0yODA4MDYxOTQzNTZaMEQxFzAVBgNVBAoTDkFudGhyb3BpYywgUEJDMSkwJwYDVQQDEyBBbnRocm9waWMgQ2xhdWRlIENvbnRlbnQgU2lnbmluZzBZMBMGByqGSM49AgEGCCqGSM49AwEHA0IABJh6CmvLUBgFFNU0vUKlOVtE6djd17L5SuwX0LemFisBM3dkd/3cyjxFA3Qo5S46fX0/ihY0VZ7mfb9KF703t5OjWDBWMA4GA1UdDwEB/wQEAwIHgDAVBgNVHSUEDjAMBgorBgEEAYPoXgIBMAwGA1UdEwEB/wQCMAAwHwYDVR0jBBgwFoAUzlHiBIFOZFsj+OPEz5o+nMHXXMIwCgYIKoZIzj0EAwMDZwAwZAIwMXMdFJ4BetLLVY7ORuE9noqbbAZOZn/aArXyTwFAZfKrPzxF2vPoJNf1+UCdg1XGAjBwX1zd9WGqYkqmL5SFqw1QySjr1zJfpJM9+1rdDwSPLMOPOjKuiXjoU/pUUeG9RwmhY3BhZFkNngAAAAAAAAAAAAAAAAAAAAAAAAAAAAAAAAAAAAAAAAAAAAAAAAAAAAAAAAAAAAAAAAAAAAAAAAAAAAAAAAAAAAAAAAAAAAAAAAAAAAAAAAAAAAAAAAAAAAAAAAAAAAAAAAAAAAAAAAAAAAAAAAAAAAAAAAAAAAAAAAAAAAAAAAAAAAAAAAAAAAAAAAAAAAAAAAAAAAAAAAAAAAAAAAAAAAAAAAAAAAAAAAAAAAAAAAAAAAAAAAAAAAAAAAAAAAAAAAAAAAAAAAAAAAAAAAAAAAAAAAAAAAAAAAAAAAAAAAAAAAAAAAAAAAAAAAAAAAAAAAAAAAAAAAAAAAAAAAAAAAAAAAAAAAAAAAAAAAAAAAAAAAAAAAAAAAAAAAAAAAAAAAAAAAAAAAAAAAAAAAAAAAAAAAAAAAAAAAAAAAAAAAAAAAAAAAAAAAAAAAAAAAAAAAAAAAAAAAAAAAAAAAAAAAAAAAAAAAAAAAAAAAAAAAAAAAAAAAAAAAAAAAAAAAAAAAAAAAAAAAAAAAAAAAAAAAAAAAAAAAAAAAAAAAAAAAAAAAAAAAAAAAAAAAAAAAAAAAAAAAAAAAAAAAAAAAAAAAAAAAAAAAAAAAAAAAAAAAAAAAAAAAAAAAAAAAAAAAAAAAAAAAAAAAAAAAAAAAAAAAAAAAAAAAAAAAAAAAAAAAAAAAAAAAAAAAAAAAAAAAAAAAAAAAAAAAAAAAAAAAAAAAAAAAAAAAAAAAAAAAAAAAAAAAAAAAAAAAAAAAAAAAAAAAAAAAAAAAAAAAAAAAAAAAAAAAAAAAAAAAAAAAAAAAAAAAAAAAAAAAAAAAAAAAAAAAAAAAAAAAAAAAAAAAAAAAAAAAAAAAAAAAAAAAAAAAAAAAAAAAAAAAAAAAAAAAAAAAAAAAAAAAAAAAAAAAAAAAAAAAAAAAAAAAAAAAAAAAAAAAAAAAAAAAAAAAAAAAAAAAAAAAAAAAAAAAAAAAAAAAAAAAAAAAAAAAAAAAAAAAAAAAAAAAAAAAAAAAAAAAAAAAAAAAAAAAAAAAAAAAAAAAAAAAAAAAAAAAAAAAAAAAAAAAAAAAAAAAAAAAAAAAAAAAAAAAAAAAAAAAAAAAAAAAAAAAAAAAAAAAAAAAAAAAAAAAAAAAAAAAAAAAAAAAAAAAAAAAAAAAAAAAAAAAAAAAAAAAAAAAAAAAAAAAAAAAAAAAAAAAAAAAAAAAAAAAAAAAAAAAAAAAAAAAAAAAAAAAAAAAAAAAAAAAAAAAAAAAAAAAAAAAAAAAAAAAAAAAAAAAAAAAAAAAAAAAAAAAAAAAAAAAAAAAAAAAAAAAAAAAAAAAAAAAAAAAAAAAAAAAAAAAAAAAAAAAAAAAAAAAAAAAAAAAAAAAAAAAAAAAAAAAAAAAAAAAAAAAAAAAAAAAAAAAAAAAAAAAAAAAAAAAAAAAAAAAAAAAAAAAAAAAAAAAAAAAAAAAAAAAAAAAAAAAAAAAAAAAAAAAAAAAAAAAAAAAAAAAAAAAAAAAAAAAAAAAAAAAAAAAAAAAAAAAAAAAAAAAAAAAAAAAAAAAAAAAAAAAAAAAAAAAAAAAAAAAAAAAAAAAAAAAAAAAAAAAAAAAAAAAAAAAAAAAAAAAAAAAAAAAAAAAAAAAAAAAAAAAAAAAAAAAAAAAAAAAAAAAAAAAAAAAAAAAAAAAAAAAAAAAAAAAAAAAAAAAAAAAAAAAAAAAAAAAAAAAAAAAAAAAAAAAAAAAAAAAAAAAAAAAAAAAAAAAAAAAAAAAAAAAAAAAAAAAAAAAAAAAAAAAAAAAAAAAAAAAAAAAAAAAAAAAAAAAAAAAAAAAAAAAAAAAAAAAAAAAAAAAAAAAAAAAAAAAAAAAAAAAAAAAAAAAAAAAAAAAAAAAAAAAAAAAAAAAAAAAAAAAAAAAAAAAAAAAAAAAAAAAAAAAAAAAAAAAAAAAAAAAAAAAAAAAAAAAAAAAAAAAAAAAAAAAAAAAAAAAAAAAAAAAAAAAAAAAAAAAAAAAAAAAAAAAAAAAAAAAAAAAAAAAAAAAAAAAAAAAAAAAAAAAAAAAAAAAAAAAAAAAAAAAAAAAAAAAAAAAAAAAAAAAAAAAAAAAAAAAAAAAAAAAAAAAAAAAAAAAAAAAAAAAAAAAAAAAAAAAAAAAAAAAAAAAAAAAAAAAAAAAAAAAAAAAAAAAAAAAAAAAAAAAAAAAAAAAAAAAAAAAAAAAAAAAAAAAAAAAAAAAAAAAAAAAAAAAAAAAAAAAAAAAAAAAAAAAAAAAAAAAAAAAAAAAAAAAAAAAAAAAAAAAAAAAAAAAAAAAAAAAAAAAAAAAAAAAAAAAAAAAAAAAAAAAAAAAAAAAAAAAAAAAAAAAAAAAAAAAAAAAAAAAAAAAAAAAAAAAAAAAAAAAAAAAAAAAAAAAAAAAAAAAAAAAAAAAAAAAAAAAAAAAAAAAAAAAAAAAAAAAAAAAAAAAAAAAAAAAAAAAAAAAAAAAAAAAAAAAAAAAAAAAAAAAAAAAAAAAAAAAAAAAAAAAAAAAAAAAAAAAAAAAAAAAAAAAAAAAAAAAAAAAAAAAAAAAAAAAAAAAAAAAAAAAAAAAAAAAAAAAAAAAAAAAAAAAAAAAAAAAAAAAAAAAAAAAAAAAAAAAAAAAAAAAAAAAAAAAAAAAAAAAAAAAAAAAAAAAAAAAAAAAAAAAAAAAAAAAAAAAAAAAAAAAAAAAAAAAAAAAAAAAAAAAAAAAAAAAAAAAAAAAAAAAAAAAAAAAAAAAAAAAAAAAAAAAAAAAAAAAAAAAAAAAAAAAAAAAAAAAAAAAAAAAAAAAAAAAAAAAAAAAAAAAAAAAAAAAAAAAAAAAAAAAAAAAAAAAAAAAAAAAAAAAAAAAAAAAAAAAAAAAAAAAAAAAAAAAAAAAAAAAAAAAAAAAAAAAAAAAAAAAAAAAAAAAAAAAAAAAAAAAAAAAAAAAAAAAAAAAAAAAAAAAAAAAAAAAAAAAAAAAAAAAAAAAAAAAAAAAAAAAAAAAAAAAAAAAAAAAAAAAAAAAAAAAAAAAAAAAAAAAAAAAAAAAAAAAAAAAAAAAAAAAAAAAAAAAAAAAAAAAAAAAAAAAAAAAAAAAAAAAAAAAAAAAAAAAAAAAAAAAAAAAAAAAAAAAAAAAAAAAAAAAAAAAAAAAAAAAAAAAAAAAAAAAAAAAAAAAAAAAAAAAAAAAAAAAAAAAAAAAAAAAAAAAAAAAAAAAAAAAAAAAAAAAAAAAAAAAAAAAAAAAAAAAAAAAAAAAAAAAAAAAAAAAAAAAAAAAAAAAAAAAAAAAAAAAAAAAAAAAAAAAAAAAAAAAAAAAAAAAAAAAAAAAAAAAAAAAAAAAAAAAAAAAAAAAAAAAAAAAAAAAAAAAAAAAAAAAAAAAAAAAAAAAAAAAAAAAAAAAAAAAAAAAAAAAAAAAAAAAAAAAAAAAAAAAAAAAAAAAAAAAAAAAAAAAAAAAAAAAAAAAAAAAAAAAAAAAAAAAAAAAAAAAAAAAAAAAAAAAAAAAAAAAAAAAAAAAAAAAAAAAAAAAAAAAAAAAAAAAAAAAAAAAAAAAAAAAAAAAAAAAAAAAAAAAAAAAAAAAAAAAAAAAAAAAAAAAAAAAAAAAAAAAAAAAAAAAAAAAAAAAAAAAAAAAAAAAAAAAAAAAAAAAAAAAAAAAAAAAAAAAAAAAAAAAAAAAAAAAAAAAAAAAAAAAAAAAAAAAAAAAAAAAAAAAAAAAAAAAAAAAAAAAAAAAAAAAAAAAAAAAAAAAAAAAAAAAAAAAAAAAAAAAAAAAAAAAAAAAAAAAAAAAAAAAAAAAAAAAAAAAAAAAAAAAAAAAAAAAAAAAAAAAAAAAAAAAAAAAAAAAAAAAAAAAAAAAAAAAAAAAAAAAAAAAAAAAAAAAAAAAAAAAAAAAAAAAAAAAAAAAAAAAAAAAAAAAAAAAAAAAAAAAAAAAAAAAAAAAAAAAAAAAAAAAAAAAAAAAAAAAAAAAAAAAAAAAAAAAAAAAAAAAAAAAAAAAAAAAAAAAAAAAAAAAAAAAAAAAAAAAAAAAAAAAAAAAAAAAAAAAAAAAAAAAAAAAAAAAAAAAAAAAAAAAAAAAAAAAAAAAAAAAAAAAAAAAAAAAAAAAAAAAAAAAAAAAAAAAAAAAAAAAAAAAAAAAAAAAAAAAAAAAAAAAAAAAAAAAAAAAAAAAAAAAAAAAAAAAAAAAAAAAAAAAAAAAAAAAAAAAAAAAAAAAAAAAAAAAAAAAAAAAAAAAAAAAAAAAAAAAAAAAAAAAAAAAAAAAAAAAAAAAAAAAAAAAAAAAAAAAAAAAAAAAAAAAAAAAAAAAAAAAAAAAAAAAAAAAAAAAAAAAAAAAAAAAAAAAAAAAAAAAAAAAAAAAAAAAAAAAAAAAAAAAAAAAAAAAAAAAAAAAAAAAAAAAAAAAAAAAAAAAAAAAAAAAAAAAAAAAAAAAAAAAAAAAAAAAAAAAAAAAAAAAAAAAAAAAAAAAAAAAAAAAAAAAAAAAAAAAAAAAAAAAAAAAAAAAAAAAAAAAAAAAAAAAAAAAAAAAAAAAAAAAAAAAAAAAAAAAAAAAAAAAAAAAAAAAAAAAAAAAAAAAAAAAAAAAAAAAAAAAAAAAAAAAAAAAAAAAAAAAAAAAAAAAAAAAAAAAAAAAAAAAAAAAAAAAAAAAAAAAAAAAAAAAAAAAAAAAAAAPZYQNWhJnmvnygVQJwiM5yVElWo0ZXaVoxzPqdar8neqbkLsQ6HEWo2TEgzrElmCLPWgmvGNhY4Yit9FBnz/m4Yc8w=</c2pa:manifest></metadata><title>Cornerpost Logic</title><g transform="translate(-5.158 0.711) scale(1.2895)"><defs><linearGradient id="sunlight" x1="0" y1="0" x2="0" y2="1" gradientUnits="objectBoundingBox"><stop offset="0" stop-color="#f0c35a"/><stop offset="1" stop-color="#e0772f"/></linearGradient><clipPath id="abovelight"><rect x="0" y="0" width="100" height="76"/></clipPath></defs><path clip-path="url(#abovelight)" d="M73.04 29.26A31 31 0 1 0 73.04 70.74" fill="none" stroke="url(#sunlight)" stroke-width="13"/><path d="M50 44H75M50 57H75" stroke="#243b2f" stroke-width="3.2"/><rect x="40" y="30" width="11" height="46" rx="1.5" fill="#243b2f"/><path d="M26 76 42 46" stroke="#243b2f" stroke-width="5.5" stroke-linecap="round"/></g><rect x="0.00" y="97.42" width="98.00" height="5.16" rx="2.58" fill="#243b2f"/><path fill="#243b2f" d="M118.5 101.0Q112.3 101.0 107.9 98.75Q103.5 96.5 101.25 92.2Q99.0 87.9 99.0 81.5V60.699999999999996Q99.0 54.3 101.25 50.0Q103.5 45.699999999999996 107.9 43.449999999999996Q112.3 41.199999999999996 118.5 41.199999999999996Q124.7 41.199999999999996 129.1 43.449999999999996Q133.5 45.699999999999996 135.8 50.0Q138.1 54.3 138.1 60.699999999999996V81.5Q138.1 87.9 135.8 92.2Q133.5 96.5 129.1 98.75Q124.7 101.0 118.5 101.0ZM118.6 90.8Q120.5 90.8 121.5 89.75Q122.5 88.7 122.8 86.85Q123.1 85.0 123.1 82.6V59.699999999999996Q123.1 57.199999999999996 122.8 55.39999999999999Q122.5 53.599999999999994 121.5 52.5Q120.5 51.4 118.6 51.4Q116.7 51.4 115.7 52.5Q114.7 53.599999999999994 114.35 55.39999999999999Q114.0 57.199999999999996 114.0 59.699999999999996V82.6Q114.0 85.0 114.35 86.85Q114.7 88.7 115.7 89.75Q116.7 90.8 118.6 90.8ZM147.5 100.0V42.199999999999996H162.6V51.5Q165.5 46.4 168.35 43.95Q171.2 41.5 175.1 41.5Q175.8 41.5 176.35000000000002 41.55Q176.9 41.599999999999994 177.4 41.8V57.0Q176.3 56.5 174.9 56.15Q173.5 55.8 172.0 55.8Q169.2 55.8 166.89999999999998 57.25Q164.6 58.699999999999996 162.6 61.4V100.0ZM184.3 100.0V42.199999999999996H199.40000000000003V48.0Q202.50000000000003 44.9 205.95000000000005 43.05Q209.40000000000003 41.199999999999996 213.3 41.199999999999996Q216.90000000000003 41.199999999999996 219.15000000000003 43.0Q221.40000000000003 44.8 222.50000000000003 47.75Q223.60000000000002 50.699999999999996 223.60000000000002 54.4V100.0H208.60000000000002V56.9Q208.60000000000002 54.5 207.85000000000002 53.3Q207.10000000000002 52.099999999999994 205.00000000000003 52.099999999999994Q203.8 52.099999999999994 202.35000000000002 52.75Q200.90000000000003 53.4 199.40000000000003 54.5V100.0ZM251.8 101.0Q245.4 101.0 241.10000000000002 98.65Q236.8 96.3 234.60000000000002 91.75Q232.4 87.2 232.4 80.8V61.4Q232.4 54.8 234.60000000000002 50.349999999999994Q236.8 45.9 241.2 43.55Q245.6 41.199999999999996 251.8 41.199999999999996Q258.4 41.199999999999996 262.5 43.599999999999994Q266.6 46.0 268.55 50.599999999999994Q270.5 55.199999999999996 270.5 61.8V71.9H247.3V83.1Q247.3 85.6 247.85000000000002 87.19999999999999Q248.4 88.8 249.4 89.44999999999999Q250.4 90.1 251.9 90.1Q253.3 90.1 254.35000000000002 89.44999999999999Q255.4 88.8 255.89999999999998 87.4Q256.4 86.0 256.4 83.7V78.2H270.4V83.0Q270.4 91.8 265.6 96.4Q260.8 101.0 251.8 101.0ZM247.3 64.69999999999999H256.4V59.0Q256.4 56.5 255.89999999999998 54.95Q255.4 53.4 254.35000000000002 52.75Q253.3 52.099999999999994 251.70000000000002 52.099999999999994Q250.20000000000002 52.099999999999994 249.25 52.8Q248.3 53.5 247.8 55.25Q247.3 57.0 247.3 60.199999999999996ZM279.79999999999995 100.0V42.199999999999996H294.9V51.5Q297.79999999999995 46.4 300.65 43.95Q303.5 41.5 307.4 41.5Q308.09999999999997 41.5 308.65 41.55Q309.2 41.599999999999994 309.7 41.8V57.0Q308.59999999999997 56.5 307.19999999999993 56.15Q305.79999999999995 55.8 304.29999999999995 55.8Q301.5 55.8 299.2 57.25Q296.9 58.699999999999996 294.9 61.4V100.0ZM316.59999999999997 119.0V42.199999999999996H331.7V46.5Q334.4 44.0 337.54999999999995 42.599999999999994Q340.7 41.199999999999996 343.9 41.199999999999996Q347.4 41.199999999999996 349.79999999999995 42.75Q352.2 44.3 353.7 46.9Q355.2 49.5 355.79999999999995 52.7Q356.4 55.9 356.4 59.199999999999996V81.8Q356.4 87.4 355.0 91.7Q353.59999999999997 96.0 350.75 98.5Q347.9 101.0 343.4 101.0Q340.29999999999995 101.0 337.34999999999997 99.5Q334.4 98.0 331.7 95.6V119.0ZM336.7 90.9Q338.59999999999997 90.9 339.54999999999995 89.75Q340.5 88.6 340.9 86.69999999999999Q341.29999999999995 84.8 341.29999999999995 82.5V58.3Q341.29999999999995 56.199999999999996 340.9 54.5Q340.5 52.8 339.5 51.75Q338.5 50.699999999999996 336.79999999999995 50.699999999999996Q335.4 50.699999999999996 334.09999999999997 51.349999999999994Q332.79999999999995 52.0 331.7 53.0V89.2Q332.9 90.0 334.09999999999997 90.45Q335.29999999999995 90.9 336.7 90.9ZM384.1 101.0Q377.90000000000003 101.0 373.5 98.75Q369.1 96.5 366.85 92.2Q364.6 87.9 364.6 81.5V60.699999999999996Q364.6 54.3 366.85 50.0Q369.1 45.699999999999996 373.5 43.449999999999996Q377.90000000000003 41.199999999999996 384.1 41.199999999999996Q390.3 41.199999999999996 394.70000000000005 43.449999999999996Q399.1 45.699999999999996 401.40000000000003 50.0Q403.70000000000005 54.3 403.70000000000005 60.699999999999996V81.5Q403.70000000000005 87.9 401.40000000000003 92.2Q399.1 96.5 394.70000000000005 98.75Q390.3 101.0 384.1 101.0ZM384.20000000000005 90.8Q386.1 90.8 387.1 89.75Q388.1 88.7 388.40000000000003 86.85Q388.70000000000005 85.0 388.70000000000005 82.6V59.699999999999996Q388.70000000000005 57.199999999999996 388.40000000000003 55.39999999999999Q388.1 53.599999999999994 387.1 52.5Q386.1 51.4 384.20000000000005 51.4Q382.3 51.4 381.3 52.5Q380.3 53.599999999999994 379.95000000000005 55.39999999999999Q379.6 57.199999999999996 379.6 59.699999999999996V82.6Q379.6 85.0 379.95000000000005 86.85Q380.3 88.7 381.3 89.75Q382.3 90.8 384.20000000000005 90.8ZM429.70000000000005 101.0Q422.20000000000005 101.0 417.35 97.35Q412.50000000000006 93.7 409.80000000000007 86.1L420.40000000000003 81.7Q421.90000000000003 85.9 424.0 88.25Q426.1 90.6 428.90000000000003 90.6Q431.00000000000006 90.6 432.05000000000007 89.65Q433.1 88.7 433.1 87.0Q433.1 84.6 431.5 82.69999999999999Q429.90000000000003 80.8 425.80000000000007 77.4L420.40000000000003 72.8Q416.20000000000005 69.2 413.65000000000003 65.65Q411.1 62.1 411.1 56.8Q411.1 52.099999999999994 413.45000000000005 48.599999999999994Q415.80000000000007 45.099999999999994 419.75000000000006 43.14999999999999Q423.70000000000005 41.199999999999996 428.30000000000007 41.199999999999996Q435.50000000000006 41.199999999999996 440.1 45.25Q444.70000000000005 49.3 446.40000000000003 56.199999999999996L436.30000000000007 60.599999999999994Q435.80000000000007 58.4 434.75000000000006 56.45Q433.70000000000005 54.5 432.20000000000005 53.2Q430.70000000000005 51.9 428.70000000000005 51.9Q426.90000000000003 51.9 425.80000000000007 53.0Q424.70000000000005 54.099999999999994 424.70000000000005 55.8Q424.70000000000005 57.599999999999994 426.55000000000007 59.599999999999994Q428.40000000000003 61.599999999999994 431.70000000000005 64.4L437.1 69.2Q439.50000000000006 71.3 441.80000000000007 73.65Q444.1 76.0 445.6 78.85Q447.1 81.7 447.1 85.4Q447.1 90.4 444.70000000000005 93.9Q442.30000000000007 97.4 438.35 99.2Q434.40000000000003 101.0 429.70000000000005 101.0ZM471.7 100.6Q465.6 100.6 462.25 98.75Q458.9 96.9 457.6 93.4Q456.3 89.9 456.3 84.9V52.099999999999994H450.6V42.199999999999996H456.3V24.700000000000003H471.5V42.199999999999996H480.0V52.099999999999994H471.5V83.5Q471.5 86.2 472.9 87.35Q474.3 88.5 476.7 88.5Q477.9 88.5 479.0 88.35Q480.1 88.2 481.0 88.1V99.9Q479.5 100.1 476.95 100.35Q474.4 100.6 471.7 100.6Z"/><path fill="#243b2f" d="M506.95400000000006 98.93V26.17Q506.95400000000006 25.10000000000001 508.02400000000006 25.10000000000001H516.1560000000001Q517.226 25.10000000000001 517.226 26.17V90.691Q517.226 91.119 517.654 91.119H541.6220000000001Q542.692 91.119 542.692 92.189V98.93Q542.692 100.0 541.6220000000001 100.0H508.02400000000006Q506.95400000000006 100.0 506.95400000000006 98.93ZM548.47 83.843V61.694Q548.47 54.097 553.392 49.389Q558.3140000000001 44.681000000000004 566.553 44.681000000000004Q574.899 44.681000000000004 579.821 49.389Q584.743 54.097 584.743 61.694V83.843Q584.743 91.547 579.821 96.2015Q574.899 100.856 566.553 100.856Q558.207 100.856 553.3385000000001 96.2015Q548.47 91.547 548.47 83.843ZM574.471 83.094V62.336Q574.471 58.484 572.2239999999999 56.022999999999996Q569.977 53.562 566.553 53.562Q563.129 53.562 560.9355 56.022999999999996Q558.7420000000001 58.484 558.7420000000001 62.336V83.094Q558.7420000000001 87.053 560.9355 89.4605Q563.129 91.868 566.553 91.868Q569.977 91.868 572.2239999999999 89.4605Q574.471 87.053 574.471 83.094ZM620.4810000000001 45.537H628.613Q629.6830000000001 45.537 629.6830000000001 46.607V98.395Q629.6830000000001 109.63 624.547 115.7825Q619.4110000000001 121.935 606.892 121.935L604.003 121.828Q602.9330000000001 121.721 602.9330000000001 120.651V113.803Q602.9330000000001 112.733 604.1100000000001 112.733Q612.8840000000001 113.054 616.1475 109.2555Q619.4110000000001 105.457 619.4110000000001 97.432V95.185Q619.4110000000001 94.971 619.2505000000001 94.9175Q619.09 94.864 618.8760000000001 95.078Q615.238 100.0 608.4970000000001 100.0Q601.4350000000001 100.0 597.6365000000001 95.4525Q593.8380000000001 90.905 593.8380000000001 83.094V61.694Q593.8380000000001 53.776 597.69 49.228500000000004Q601.542 44.681000000000004 608.4970000000001 44.681000000000004Q615.4520000000001 44.681000000000004 618.8760000000001 49.603Q619.09 49.817 619.2505000000001 49.71Q619.4110000000001 49.603 619.4110000000001 49.389V46.607Q619.4110000000001 45.537 620.4810000000001 45.537ZM619.4110000000001 82.452V62.336Q619.4110000000001 58.484 617.3245000000001 56.022999999999996Q615.238 53.562 611.8140000000001 53.562Q608.3900000000001 53.562 606.2500000000001 56.022999999999996Q604.1100000000001 58.484 604.1100000000001 62.336V82.452Q604.1100000000001 86.304 606.2500000000001 88.7115Q608.3900000000001 91.119 611.8140000000001 91.119Q615.238 91.119 617.3245000000001 88.7115Q619.4110000000001 86.304 619.4110000000001 82.452ZM639.42 30.129000000000005Q639.42 27.132999999999996 641.346 25.207Q643.272 23.281000000000006 646.268 23.281000000000006Q649.371 23.281000000000006 651.2435 25.1535Q653.116 27.025999999999996 653.116 30.129000000000005Q653.116 33.125 651.19 35.051Q649.264 36.977000000000004 646.268 36.977000000000004Q643.272 36.977000000000004 641.346 35.051Q639.42 33.125 639.42 30.129000000000005ZM641.239 98.93V46.607Q641.239 45.537 642.309 45.537H650.441Q651.511 45.537 651.511 46.607V98.93Q651.511 100.0 650.441 100.0H642.309Q641.239 100.0 641.239 98.93ZM662.3180000000001 83.843V61.694Q662.3180000000001 54.097 667.1865 49.389Q672.0550000000001 44.681000000000004 680.2940000000001 44.681000000000004Q685.7510000000001 44.681000000000004 689.8705000000001 46.7675Q693.9900000000001 48.854 696.1835000000001 52.438500000000005Q698.3770000000001 56.023 698.3770000000001 60.517V61.908Q698.3770000000001 62.978 697.3070000000001 62.978L689.1750000000001 63.299Q688.1050000000001 63.299 688.1050000000001 62.229V61.159Q688.1050000000001 58.056 685.8580000000002 55.809Q683.6110000000001 53.562 680.2940000000001 53.562Q676.8700000000001 53.562 674.7300000000001 56.022999999999996Q672.5900000000001 58.484 672.5900000000001 62.336V83.201Q672.5900000000001 87.053 674.7300000000001 89.514Q676.8700000000001 91.975 680.2940000000001 91.975Q683.6110000000001 91.975 685.8580000000002 89.728Q688.1050000000001 87.481 688.1050000000001 84.378V83.30799999999999Q688.1050000000001 82.238 689.1750000000001 82.238L697.3070000000001 82.345Q698.3770000000001 82.345 698.3770000000001 83.41499999999999V85.02Q698.3770000000001 91.975 693.4550000000002 96.4155Q688.5330000000001 100.856 680.2940000000001 100.856Q672.0550000000001 100.856 667.1865 96.255Q662.3180000000001 91.654 662.3180000000001 83.843Z"/></svg>